%TF.GenerationSoftware,KiCad,Pcbnew,7.0.10*%
%TF.CreationDate,2024-02-13T21:55:36+01:00*%
%TF.ProjectId,LegoLights,4c65676f-4c69-4676-9874-732e6b696361,rev?*%
%TF.SameCoordinates,Original*%
%TF.FileFunction,Legend,Top*%
%TF.FilePolarity,Positive*%
%FSLAX46Y46*%
G04 Gerber Fmt 4.6, Leading zero omitted, Abs format (unit mm)*
G04 Created by KiCad (PCBNEW 7.0.10) date 2024-02-13 21:55:36*
%MOMM*%
%LPD*%
G01*
G04 APERTURE LIST*
%ADD10C,0.150000*%
%ADD11C,0.120000*%
G04 APERTURE END LIST*
D10*
X126590588Y-60639438D02*
X126495350Y-60591819D01*
X126495350Y-60591819D02*
X126352493Y-60591819D01*
X126352493Y-60591819D02*
X126209636Y-60639438D01*
X126209636Y-60639438D02*
X126114398Y-60734676D01*
X126114398Y-60734676D02*
X126066779Y-60829914D01*
X126066779Y-60829914D02*
X126019160Y-61020390D01*
X126019160Y-61020390D02*
X126019160Y-61163247D01*
X126019160Y-61163247D02*
X126066779Y-61353723D01*
X126066779Y-61353723D02*
X126114398Y-61448961D01*
X126114398Y-61448961D02*
X126209636Y-61544200D01*
X126209636Y-61544200D02*
X126352493Y-61591819D01*
X126352493Y-61591819D02*
X126447731Y-61591819D01*
X126447731Y-61591819D02*
X126590588Y-61544200D01*
X126590588Y-61544200D02*
X126638207Y-61496580D01*
X126638207Y-61496580D02*
X126638207Y-61163247D01*
X126638207Y-61163247D02*
X126447731Y-61163247D01*
X127066779Y-61591819D02*
X127066779Y-60591819D01*
X127066779Y-60591819D02*
X127638207Y-61591819D01*
X127638207Y-61591819D02*
X127638207Y-60591819D01*
X128114398Y-61591819D02*
X128114398Y-60591819D01*
X128114398Y-60591819D02*
X128352493Y-60591819D01*
X128352493Y-60591819D02*
X128495350Y-60639438D01*
X128495350Y-60639438D02*
X128590588Y-60734676D01*
X128590588Y-60734676D02*
X128638207Y-60829914D01*
X128638207Y-60829914D02*
X128685826Y-61020390D01*
X128685826Y-61020390D02*
X128685826Y-61163247D01*
X128685826Y-61163247D02*
X128638207Y-61353723D01*
X128638207Y-61353723D02*
X128590588Y-61448961D01*
X128590588Y-61448961D02*
X128495350Y-61544200D01*
X128495350Y-61544200D02*
X128352493Y-61591819D01*
X128352493Y-61591819D02*
X128114398Y-61591819D01*
X141068588Y-60639438D02*
X140973350Y-60591819D01*
X140973350Y-60591819D02*
X140830493Y-60591819D01*
X140830493Y-60591819D02*
X140687636Y-60639438D01*
X140687636Y-60639438D02*
X140592398Y-60734676D01*
X140592398Y-60734676D02*
X140544779Y-60829914D01*
X140544779Y-60829914D02*
X140497160Y-61020390D01*
X140497160Y-61020390D02*
X140497160Y-61163247D01*
X140497160Y-61163247D02*
X140544779Y-61353723D01*
X140544779Y-61353723D02*
X140592398Y-61448961D01*
X140592398Y-61448961D02*
X140687636Y-61544200D01*
X140687636Y-61544200D02*
X140830493Y-61591819D01*
X140830493Y-61591819D02*
X140925731Y-61591819D01*
X140925731Y-61591819D02*
X141068588Y-61544200D01*
X141068588Y-61544200D02*
X141116207Y-61496580D01*
X141116207Y-61496580D02*
X141116207Y-61163247D01*
X141116207Y-61163247D02*
X140925731Y-61163247D01*
X141544779Y-61591819D02*
X141544779Y-60591819D01*
X141544779Y-60591819D02*
X142116207Y-61591819D01*
X142116207Y-61591819D02*
X142116207Y-60591819D01*
X142592398Y-61591819D02*
X142592398Y-60591819D01*
X142592398Y-60591819D02*
X142830493Y-60591819D01*
X142830493Y-60591819D02*
X142973350Y-60639438D01*
X142973350Y-60639438D02*
X143068588Y-60734676D01*
X143068588Y-60734676D02*
X143116207Y-60829914D01*
X143116207Y-60829914D02*
X143163826Y-61020390D01*
X143163826Y-61020390D02*
X143163826Y-61163247D01*
X143163826Y-61163247D02*
X143116207Y-61353723D01*
X143116207Y-61353723D02*
X143068588Y-61448961D01*
X143068588Y-61448961D02*
X142973350Y-61544200D01*
X142973350Y-61544200D02*
X142830493Y-61591819D01*
X142830493Y-61591819D02*
X142592398Y-61591819D01*
X141560779Y-58416866D02*
X142322684Y-58416866D01*
X141941731Y-58797819D02*
X141941731Y-58035914D01*
X126574779Y-58416866D02*
X127336684Y-58416866D01*
X126955731Y-58797819D02*
X126955731Y-58035914D01*
X130579905Y-60943319D02*
X130579905Y-59943319D01*
X130579905Y-59943319D02*
X130818000Y-59943319D01*
X130818000Y-59943319D02*
X130960857Y-59990938D01*
X130960857Y-59990938D02*
X131056095Y-60086176D01*
X131056095Y-60086176D02*
X131103714Y-60181414D01*
X131103714Y-60181414D02*
X131151333Y-60371890D01*
X131151333Y-60371890D02*
X131151333Y-60514747D01*
X131151333Y-60514747D02*
X131103714Y-60705223D01*
X131103714Y-60705223D02*
X131056095Y-60800461D01*
X131056095Y-60800461D02*
X130960857Y-60895700D01*
X130960857Y-60895700D02*
X130818000Y-60943319D01*
X130818000Y-60943319D02*
X130579905Y-60943319D01*
X132103714Y-60943319D02*
X131532286Y-60943319D01*
X131818000Y-60943319D02*
X131818000Y-59943319D01*
X131818000Y-59943319D02*
X131722762Y-60086176D01*
X131722762Y-60086176D02*
X131627524Y-60181414D01*
X131627524Y-60181414D02*
X131532286Y-60229033D01*
X139025333Y-58724319D02*
X138692000Y-58248128D01*
X138453905Y-58724319D02*
X138453905Y-57724319D01*
X138453905Y-57724319D02*
X138834857Y-57724319D01*
X138834857Y-57724319D02*
X138930095Y-57771938D01*
X138930095Y-57771938D02*
X138977714Y-57819557D01*
X138977714Y-57819557D02*
X139025333Y-57914795D01*
X139025333Y-57914795D02*
X139025333Y-58057652D01*
X139025333Y-58057652D02*
X138977714Y-58152890D01*
X138977714Y-58152890D02*
X138930095Y-58200509D01*
X138930095Y-58200509D02*
X138834857Y-58248128D01*
X138834857Y-58248128D02*
X138453905Y-58248128D01*
X139977714Y-58724319D02*
X139406286Y-58724319D01*
X139692000Y-58724319D02*
X139692000Y-57724319D01*
X139692000Y-57724319D02*
X139596762Y-57867176D01*
X139596762Y-57867176D02*
X139501524Y-57962414D01*
X139501524Y-57962414D02*
X139406286Y-58010033D01*
D11*
%TO.C,J1*%
X125511000Y-59670000D02*
X125511000Y-57070000D01*
X125511000Y-59670000D02*
X122851000Y-59670000D01*
X125511000Y-57070000D02*
X122851000Y-57070000D01*
X124181000Y-62270000D02*
X122851000Y-62270000D01*
X122851000Y-62270000D02*
X122851000Y-60940000D01*
X122851000Y-59670000D02*
X122851000Y-57070000D01*
%TO.C,D1*%
X132273000Y-62948500D02*
X135443000Y-62948500D01*
X135443000Y-62948500D02*
X135443000Y-58888500D01*
X132273000Y-58888500D02*
X132273000Y-62948500D01*
%TO.C,R1*%
X137895000Y-58042436D02*
X137895000Y-58496564D01*
X136425000Y-58042436D02*
X136425000Y-58496564D01*
%TO.C,J2*%
X146110000Y-59720000D02*
X146110000Y-57120000D01*
X146110000Y-59720000D02*
X143450000Y-59720000D01*
X146110000Y-57120000D02*
X143450000Y-57120000D01*
X144780000Y-62320000D02*
X143450000Y-62320000D01*
X143450000Y-62320000D02*
X143450000Y-60990000D01*
X143450000Y-59720000D02*
X143450000Y-57120000D01*
%TD*%
M02*
