%TF.GenerationSoftware,KiCad,Pcbnew,7.0.10*%
%TF.CreationDate,2024-02-12T22:47:14+01:00*%
%TF.ProjectId,LegoLights,4c65676f-4c69-4676-9874-732e6b696361,rev?*%
%TF.SameCoordinates,Original*%
%TF.FileFunction,Legend,Top*%
%TF.FilePolarity,Positive*%
%FSLAX46Y46*%
G04 Gerber Fmt 4.6, Leading zero omitted, Abs format (unit mm)*
G04 Created by KiCad (PCBNEW 7.0.10) date 2024-02-12 22:47:14*
%MOMM*%
%LPD*%
G01*
G04 APERTURE LIST*
%ADD10C,0.150000*%
%ADD11C,0.120000*%
G04 APERTURE END LIST*
D10*
X126590588Y-60639438D02*
X126495350Y-60591819D01*
X126495350Y-60591819D02*
X126352493Y-60591819D01*
X126352493Y-60591819D02*
X126209636Y-60639438D01*
X126209636Y-60639438D02*
X126114398Y-60734676D01*
X126114398Y-60734676D02*
X126066779Y-60829914D01*
X126066779Y-60829914D02*
X126019160Y-61020390D01*
X126019160Y-61020390D02*
X126019160Y-61163247D01*
X126019160Y-61163247D02*
X126066779Y-61353723D01*
X126066779Y-61353723D02*
X126114398Y-61448961D01*
X126114398Y-61448961D02*
X126209636Y-61544200D01*
X126209636Y-61544200D02*
X126352493Y-61591819D01*
X126352493Y-61591819D02*
X126447731Y-61591819D01*
X126447731Y-61591819D02*
X126590588Y-61544200D01*
X126590588Y-61544200D02*
X126638207Y-61496580D01*
X126638207Y-61496580D02*
X126638207Y-61163247D01*
X126638207Y-61163247D02*
X126447731Y-61163247D01*
X127066779Y-61591819D02*
X127066779Y-60591819D01*
X127066779Y-60591819D02*
X127638207Y-61591819D01*
X127638207Y-61591819D02*
X127638207Y-60591819D01*
X128114398Y-61591819D02*
X128114398Y-60591819D01*
X128114398Y-60591819D02*
X128352493Y-60591819D01*
X128352493Y-60591819D02*
X128495350Y-60639438D01*
X128495350Y-60639438D02*
X128590588Y-60734676D01*
X128590588Y-60734676D02*
X128638207Y-60829914D01*
X128638207Y-60829914D02*
X128685826Y-61020390D01*
X128685826Y-61020390D02*
X128685826Y-61163247D01*
X128685826Y-61163247D02*
X128638207Y-61353723D01*
X128638207Y-61353723D02*
X128590588Y-61448961D01*
X128590588Y-61448961D02*
X128495350Y-61544200D01*
X128495350Y-61544200D02*
X128352493Y-61591819D01*
X128352493Y-61591819D02*
X128114398Y-61591819D01*
X140814588Y-60385438D02*
X140719350Y-60337819D01*
X140719350Y-60337819D02*
X140576493Y-60337819D01*
X140576493Y-60337819D02*
X140433636Y-60385438D01*
X140433636Y-60385438D02*
X140338398Y-60480676D01*
X140338398Y-60480676D02*
X140290779Y-60575914D01*
X140290779Y-60575914D02*
X140243160Y-60766390D01*
X140243160Y-60766390D02*
X140243160Y-60909247D01*
X140243160Y-60909247D02*
X140290779Y-61099723D01*
X140290779Y-61099723D02*
X140338398Y-61194961D01*
X140338398Y-61194961D02*
X140433636Y-61290200D01*
X140433636Y-61290200D02*
X140576493Y-61337819D01*
X140576493Y-61337819D02*
X140671731Y-61337819D01*
X140671731Y-61337819D02*
X140814588Y-61290200D01*
X140814588Y-61290200D02*
X140862207Y-61242580D01*
X140862207Y-61242580D02*
X140862207Y-60909247D01*
X140862207Y-60909247D02*
X140671731Y-60909247D01*
X141290779Y-61337819D02*
X141290779Y-60337819D01*
X141290779Y-60337819D02*
X141862207Y-61337819D01*
X141862207Y-61337819D02*
X141862207Y-60337819D01*
X142338398Y-61337819D02*
X142338398Y-60337819D01*
X142338398Y-60337819D02*
X142576493Y-60337819D01*
X142576493Y-60337819D02*
X142719350Y-60385438D01*
X142719350Y-60385438D02*
X142814588Y-60480676D01*
X142814588Y-60480676D02*
X142862207Y-60575914D01*
X142862207Y-60575914D02*
X142909826Y-60766390D01*
X142909826Y-60766390D02*
X142909826Y-60909247D01*
X142909826Y-60909247D02*
X142862207Y-61099723D01*
X142862207Y-61099723D02*
X142814588Y-61194961D01*
X142814588Y-61194961D02*
X142719350Y-61290200D01*
X142719350Y-61290200D02*
X142576493Y-61337819D01*
X142576493Y-61337819D02*
X142338398Y-61337819D01*
X141814779Y-58416866D02*
X142576684Y-58416866D01*
X142195731Y-58797819D02*
X142195731Y-58035914D01*
X126066779Y-58670866D02*
X126828684Y-58670866D01*
X126447731Y-59051819D02*
X126447731Y-58289914D01*
X132032819Y-60210594D02*
X131032819Y-60210594D01*
X131032819Y-60210594D02*
X131032819Y-59972499D01*
X131032819Y-59972499D02*
X131080438Y-59829642D01*
X131080438Y-59829642D02*
X131175676Y-59734404D01*
X131175676Y-59734404D02*
X131270914Y-59686785D01*
X131270914Y-59686785D02*
X131461390Y-59639166D01*
X131461390Y-59639166D02*
X131604247Y-59639166D01*
X131604247Y-59639166D02*
X131794723Y-59686785D01*
X131794723Y-59686785D02*
X131889961Y-59734404D01*
X131889961Y-59734404D02*
X131985200Y-59829642D01*
X131985200Y-59829642D02*
X132032819Y-59972499D01*
X132032819Y-59972499D02*
X132032819Y-60210594D01*
X132032819Y-58686785D02*
X132032819Y-59258213D01*
X132032819Y-58972499D02*
X131032819Y-58972499D01*
X131032819Y-58972499D02*
X131175676Y-59067737D01*
X131175676Y-59067737D02*
X131270914Y-59162975D01*
X131270914Y-59162975D02*
X131318533Y-59258213D01*
X139264819Y-58944166D02*
X138788628Y-59277499D01*
X139264819Y-59515594D02*
X138264819Y-59515594D01*
X138264819Y-59515594D02*
X138264819Y-59134642D01*
X138264819Y-59134642D02*
X138312438Y-59039404D01*
X138312438Y-59039404D02*
X138360057Y-58991785D01*
X138360057Y-58991785D02*
X138455295Y-58944166D01*
X138455295Y-58944166D02*
X138598152Y-58944166D01*
X138598152Y-58944166D02*
X138693390Y-58991785D01*
X138693390Y-58991785D02*
X138741009Y-59039404D01*
X138741009Y-59039404D02*
X138788628Y-59134642D01*
X138788628Y-59134642D02*
X138788628Y-59515594D01*
X139264819Y-57991785D02*
X139264819Y-58563213D01*
X139264819Y-58277499D02*
X138264819Y-58277499D01*
X138264819Y-58277499D02*
X138407676Y-58372737D01*
X138407676Y-58372737D02*
X138502914Y-58467975D01*
X138502914Y-58467975D02*
X138550533Y-58563213D01*
D11*
%TO.C,J1*%
X125511000Y-59670000D02*
X125511000Y-57070000D01*
X125511000Y-59670000D02*
X122851000Y-59670000D01*
X125511000Y-57070000D02*
X122851000Y-57070000D01*
X124181000Y-62270000D02*
X122851000Y-62270000D01*
X122851000Y-62270000D02*
X122851000Y-60940000D01*
X122851000Y-59670000D02*
X122851000Y-57070000D01*
%TO.C,D1*%
X132273000Y-61932500D02*
X135443000Y-61932500D01*
X135443000Y-61932500D02*
X135443000Y-57872500D01*
X132273000Y-57872500D02*
X132273000Y-61932500D01*
%TO.C,R1*%
X137895000Y-58550436D02*
X137895000Y-59004564D01*
X136425000Y-58550436D02*
X136425000Y-59004564D01*
%TO.C,J2*%
X146110000Y-59720000D02*
X146110000Y-57120000D01*
X146110000Y-59720000D02*
X143450000Y-59720000D01*
X146110000Y-57120000D02*
X143450000Y-57120000D01*
X144780000Y-62320000D02*
X143450000Y-62320000D01*
X143450000Y-62320000D02*
X143450000Y-60990000D01*
X143450000Y-59720000D02*
X143450000Y-57120000D01*
%TD*%
M02*
