%TF.GenerationSoftware,KiCad,Pcbnew,7.0.10*%
%TF.CreationDate,2024-02-19T09:05:06+01:00*%
%TF.ProjectId,LegoLights,4c65676f-4c69-4676-9874-732e6b696361,rev?*%
%TF.SameCoordinates,Original*%
%TF.FileFunction,Drillmap*%
%TF.FilePolarity,Positive*%
%FSLAX45Y45*%
G04 Gerber Fmt 4.5, Leading zero omitted, Abs format (unit mm)*
G04 Created by KiCad (PCBNEW 7.0.10) date 2024-02-19 09:05:06*
%MOMM*%
%LPD*%
G01*
G04 APERTURE LIST*
%ADD10C,0.200000*%
%ADD11C,0.100000*%
G04 APERTURE END LIST*
D10*
X11938000Y-5588000D02*
X15138000Y-5588000D01*
X15138000Y-6388000D01*
X11938000Y-6388000D01*
X11938000Y-5588000D01*
D11*
X12444300Y-5815400D02*
X12544300Y-5915400D01*
X12544300Y-5815400D02*
X12444300Y-5915400D01*
X12444300Y-6069400D02*
X12544300Y-6169400D01*
X12544300Y-6069400D02*
X12444300Y-6169400D01*
X14504200Y-5820400D02*
X14604200Y-5920400D01*
X14604200Y-5820400D02*
X14504200Y-5920400D01*
X14504200Y-6074400D02*
X14604200Y-6174400D01*
X14604200Y-6074400D02*
X14504200Y-6174400D01*
D10*
X12188777Y-6709484D02*
X12188777Y-6509484D01*
X12188777Y-6509484D02*
X12236396Y-6509484D01*
X12236396Y-6509484D02*
X12264967Y-6519008D01*
X12264967Y-6519008D02*
X12284015Y-6538055D01*
X12284015Y-6538055D02*
X12293539Y-6557103D01*
X12293539Y-6557103D02*
X12303062Y-6595198D01*
X12303062Y-6595198D02*
X12303062Y-6623769D01*
X12303062Y-6623769D02*
X12293539Y-6661865D01*
X12293539Y-6661865D02*
X12284015Y-6680912D01*
X12284015Y-6680912D02*
X12264967Y-6699960D01*
X12264967Y-6699960D02*
X12236396Y-6709484D01*
X12236396Y-6709484D02*
X12188777Y-6709484D01*
X12388777Y-6709484D02*
X12388777Y-6576150D01*
X12388777Y-6614246D02*
X12398301Y-6595198D01*
X12398301Y-6595198D02*
X12407824Y-6585674D01*
X12407824Y-6585674D02*
X12426872Y-6576150D01*
X12426872Y-6576150D02*
X12445920Y-6576150D01*
X12512586Y-6709484D02*
X12512586Y-6576150D01*
X12512586Y-6509484D02*
X12503062Y-6519008D01*
X12503062Y-6519008D02*
X12512586Y-6528531D01*
X12512586Y-6528531D02*
X12522110Y-6519008D01*
X12522110Y-6519008D02*
X12512586Y-6509484D01*
X12512586Y-6509484D02*
X12512586Y-6528531D01*
X12636396Y-6709484D02*
X12617348Y-6699960D01*
X12617348Y-6699960D02*
X12607824Y-6680912D01*
X12607824Y-6680912D02*
X12607824Y-6509484D01*
X12741158Y-6709484D02*
X12722110Y-6699960D01*
X12722110Y-6699960D02*
X12712586Y-6680912D01*
X12712586Y-6680912D02*
X12712586Y-6509484D01*
X12969729Y-6709484D02*
X12969729Y-6509484D01*
X12969729Y-6509484D02*
X13036396Y-6652341D01*
X13036396Y-6652341D02*
X13103062Y-6509484D01*
X13103062Y-6509484D02*
X13103062Y-6709484D01*
X13284015Y-6709484D02*
X13284015Y-6604722D01*
X13284015Y-6604722D02*
X13274491Y-6585674D01*
X13274491Y-6585674D02*
X13255443Y-6576150D01*
X13255443Y-6576150D02*
X13217348Y-6576150D01*
X13217348Y-6576150D02*
X13198301Y-6585674D01*
X13284015Y-6699960D02*
X13264967Y-6709484D01*
X13264967Y-6709484D02*
X13217348Y-6709484D01*
X13217348Y-6709484D02*
X13198301Y-6699960D01*
X13198301Y-6699960D02*
X13188777Y-6680912D01*
X13188777Y-6680912D02*
X13188777Y-6661865D01*
X13188777Y-6661865D02*
X13198301Y-6642817D01*
X13198301Y-6642817D02*
X13217348Y-6633293D01*
X13217348Y-6633293D02*
X13264967Y-6633293D01*
X13264967Y-6633293D02*
X13284015Y-6623769D01*
X13379253Y-6576150D02*
X13379253Y-6776150D01*
X13379253Y-6585674D02*
X13398301Y-6576150D01*
X13398301Y-6576150D02*
X13436396Y-6576150D01*
X13436396Y-6576150D02*
X13455443Y-6585674D01*
X13455443Y-6585674D02*
X13464967Y-6595198D01*
X13464967Y-6595198D02*
X13474491Y-6614246D01*
X13474491Y-6614246D02*
X13474491Y-6671388D01*
X13474491Y-6671388D02*
X13464967Y-6690436D01*
X13464967Y-6690436D02*
X13455443Y-6699960D01*
X13455443Y-6699960D02*
X13436396Y-6709484D01*
X13436396Y-6709484D02*
X13398301Y-6709484D01*
X13398301Y-6709484D02*
X13379253Y-6699960D01*
X13560205Y-6690436D02*
X13569729Y-6699960D01*
X13569729Y-6699960D02*
X13560205Y-6709484D01*
X13560205Y-6709484D02*
X13550682Y-6699960D01*
X13550682Y-6699960D02*
X13560205Y-6690436D01*
X13560205Y-6690436D02*
X13560205Y-6709484D01*
X13560205Y-6585674D02*
X13569729Y-6595198D01*
X13569729Y-6595198D02*
X13560205Y-6604722D01*
X13560205Y-6604722D02*
X13550682Y-6595198D01*
X13550682Y-6595198D02*
X13560205Y-6585674D01*
X13560205Y-6585674D02*
X13560205Y-6604722D01*
D11*
X11828000Y-6988000D02*
X11928000Y-7088000D01*
X11928000Y-6988000D02*
X11828000Y-7088000D01*
D10*
X12293539Y-7129484D02*
X12179253Y-7129484D01*
X12236396Y-7129484D02*
X12236396Y-6929484D01*
X12236396Y-6929484D02*
X12217348Y-6958055D01*
X12217348Y-6958055D02*
X12198301Y-6977103D01*
X12198301Y-6977103D02*
X12179253Y-6986627D01*
X12379253Y-7110436D02*
X12388777Y-7119960D01*
X12388777Y-7119960D02*
X12379253Y-7129484D01*
X12379253Y-7129484D02*
X12369729Y-7119960D01*
X12369729Y-7119960D02*
X12379253Y-7110436D01*
X12379253Y-7110436D02*
X12379253Y-7129484D01*
X12512586Y-6929484D02*
X12531634Y-6929484D01*
X12531634Y-6929484D02*
X12550682Y-6939008D01*
X12550682Y-6939008D02*
X12560205Y-6948531D01*
X12560205Y-6948531D02*
X12569729Y-6967579D01*
X12569729Y-6967579D02*
X12579253Y-7005674D01*
X12579253Y-7005674D02*
X12579253Y-7053293D01*
X12579253Y-7053293D02*
X12569729Y-7091388D01*
X12569729Y-7091388D02*
X12560205Y-7110436D01*
X12560205Y-7110436D02*
X12550682Y-7119960D01*
X12550682Y-7119960D02*
X12531634Y-7129484D01*
X12531634Y-7129484D02*
X12512586Y-7129484D01*
X12512586Y-7129484D02*
X12493539Y-7119960D01*
X12493539Y-7119960D02*
X12484015Y-7110436D01*
X12484015Y-7110436D02*
X12474491Y-7091388D01*
X12474491Y-7091388D02*
X12464967Y-7053293D01*
X12464967Y-7053293D02*
X12464967Y-7005674D01*
X12464967Y-7005674D02*
X12474491Y-6967579D01*
X12474491Y-6967579D02*
X12484015Y-6948531D01*
X12484015Y-6948531D02*
X12493539Y-6939008D01*
X12493539Y-6939008D02*
X12512586Y-6929484D01*
X12703062Y-6929484D02*
X12722110Y-6929484D01*
X12722110Y-6929484D02*
X12741158Y-6939008D01*
X12741158Y-6939008D02*
X12750682Y-6948531D01*
X12750682Y-6948531D02*
X12760205Y-6967579D01*
X12760205Y-6967579D02*
X12769729Y-7005674D01*
X12769729Y-7005674D02*
X12769729Y-7053293D01*
X12769729Y-7053293D02*
X12760205Y-7091388D01*
X12760205Y-7091388D02*
X12750682Y-7110436D01*
X12750682Y-7110436D02*
X12741158Y-7119960D01*
X12741158Y-7119960D02*
X12722110Y-7129484D01*
X12722110Y-7129484D02*
X12703062Y-7129484D01*
X12703062Y-7129484D02*
X12684015Y-7119960D01*
X12684015Y-7119960D02*
X12674491Y-7110436D01*
X12674491Y-7110436D02*
X12664967Y-7091388D01*
X12664967Y-7091388D02*
X12655443Y-7053293D01*
X12655443Y-7053293D02*
X12655443Y-7005674D01*
X12655443Y-7005674D02*
X12664967Y-6967579D01*
X12664967Y-6967579D02*
X12674491Y-6948531D01*
X12674491Y-6948531D02*
X12684015Y-6939008D01*
X12684015Y-6939008D02*
X12703062Y-6929484D01*
X12893539Y-6929484D02*
X12912586Y-6929484D01*
X12912586Y-6929484D02*
X12931634Y-6939008D01*
X12931634Y-6939008D02*
X12941158Y-6948531D01*
X12941158Y-6948531D02*
X12950682Y-6967579D01*
X12950682Y-6967579D02*
X12960205Y-7005674D01*
X12960205Y-7005674D02*
X12960205Y-7053293D01*
X12960205Y-7053293D02*
X12950682Y-7091388D01*
X12950682Y-7091388D02*
X12941158Y-7110436D01*
X12941158Y-7110436D02*
X12931634Y-7119960D01*
X12931634Y-7119960D02*
X12912586Y-7129484D01*
X12912586Y-7129484D02*
X12893539Y-7129484D01*
X12893539Y-7129484D02*
X12874491Y-7119960D01*
X12874491Y-7119960D02*
X12864967Y-7110436D01*
X12864967Y-7110436D02*
X12855443Y-7091388D01*
X12855443Y-7091388D02*
X12845920Y-7053293D01*
X12845920Y-7053293D02*
X12845920Y-7005674D01*
X12845920Y-7005674D02*
X12855443Y-6967579D01*
X12855443Y-6967579D02*
X12864967Y-6948531D01*
X12864967Y-6948531D02*
X12874491Y-6939008D01*
X12874491Y-6939008D02*
X12893539Y-6929484D01*
X13045920Y-7129484D02*
X13045920Y-6996150D01*
X13045920Y-7015198D02*
X13055443Y-7005674D01*
X13055443Y-7005674D02*
X13074491Y-6996150D01*
X13074491Y-6996150D02*
X13103063Y-6996150D01*
X13103063Y-6996150D02*
X13122110Y-7005674D01*
X13122110Y-7005674D02*
X13131634Y-7024722D01*
X13131634Y-7024722D02*
X13131634Y-7129484D01*
X13131634Y-7024722D02*
X13141158Y-7005674D01*
X13141158Y-7005674D02*
X13160205Y-6996150D01*
X13160205Y-6996150D02*
X13188777Y-6996150D01*
X13188777Y-6996150D02*
X13207824Y-7005674D01*
X13207824Y-7005674D02*
X13217348Y-7024722D01*
X13217348Y-7024722D02*
X13217348Y-7129484D01*
X13312586Y-7129484D02*
X13312586Y-6996150D01*
X13312586Y-7015198D02*
X13322110Y-7005674D01*
X13322110Y-7005674D02*
X13341158Y-6996150D01*
X13341158Y-6996150D02*
X13369729Y-6996150D01*
X13369729Y-6996150D02*
X13388777Y-7005674D01*
X13388777Y-7005674D02*
X13398301Y-7024722D01*
X13398301Y-7024722D02*
X13398301Y-7129484D01*
X13398301Y-7024722D02*
X13407824Y-7005674D01*
X13407824Y-7005674D02*
X13426872Y-6996150D01*
X13426872Y-6996150D02*
X13455443Y-6996150D01*
X13455443Y-6996150D02*
X13474491Y-7005674D01*
X13474491Y-7005674D02*
X13484015Y-7024722D01*
X13484015Y-7024722D02*
X13484015Y-7129484D01*
X13874491Y-6919960D02*
X13703063Y-7177103D01*
X14131634Y-6929484D02*
X14150682Y-6929484D01*
X14150682Y-6929484D02*
X14169729Y-6939008D01*
X14169729Y-6939008D02*
X14179253Y-6948531D01*
X14179253Y-6948531D02*
X14188777Y-6967579D01*
X14188777Y-6967579D02*
X14198301Y-7005674D01*
X14198301Y-7005674D02*
X14198301Y-7053293D01*
X14198301Y-7053293D02*
X14188777Y-7091388D01*
X14188777Y-7091388D02*
X14179253Y-7110436D01*
X14179253Y-7110436D02*
X14169729Y-7119960D01*
X14169729Y-7119960D02*
X14150682Y-7129484D01*
X14150682Y-7129484D02*
X14131634Y-7129484D01*
X14131634Y-7129484D02*
X14112586Y-7119960D01*
X14112586Y-7119960D02*
X14103063Y-7110436D01*
X14103063Y-7110436D02*
X14093539Y-7091388D01*
X14093539Y-7091388D02*
X14084015Y-7053293D01*
X14084015Y-7053293D02*
X14084015Y-7005674D01*
X14084015Y-7005674D02*
X14093539Y-6967579D01*
X14093539Y-6967579D02*
X14103063Y-6948531D01*
X14103063Y-6948531D02*
X14112586Y-6939008D01*
X14112586Y-6939008D02*
X14131634Y-6929484D01*
X14284015Y-7110436D02*
X14293539Y-7119960D01*
X14293539Y-7119960D02*
X14284015Y-7129484D01*
X14284015Y-7129484D02*
X14274491Y-7119960D01*
X14274491Y-7119960D02*
X14284015Y-7110436D01*
X14284015Y-7110436D02*
X14284015Y-7129484D01*
X14417348Y-6929484D02*
X14436396Y-6929484D01*
X14436396Y-6929484D02*
X14455444Y-6939008D01*
X14455444Y-6939008D02*
X14464967Y-6948531D01*
X14464967Y-6948531D02*
X14474491Y-6967579D01*
X14474491Y-6967579D02*
X14484015Y-7005674D01*
X14484015Y-7005674D02*
X14484015Y-7053293D01*
X14484015Y-7053293D02*
X14474491Y-7091388D01*
X14474491Y-7091388D02*
X14464967Y-7110436D01*
X14464967Y-7110436D02*
X14455444Y-7119960D01*
X14455444Y-7119960D02*
X14436396Y-7129484D01*
X14436396Y-7129484D02*
X14417348Y-7129484D01*
X14417348Y-7129484D02*
X14398301Y-7119960D01*
X14398301Y-7119960D02*
X14388777Y-7110436D01*
X14388777Y-7110436D02*
X14379253Y-7091388D01*
X14379253Y-7091388D02*
X14369729Y-7053293D01*
X14369729Y-7053293D02*
X14369729Y-7005674D01*
X14369729Y-7005674D02*
X14379253Y-6967579D01*
X14379253Y-6967579D02*
X14388777Y-6948531D01*
X14388777Y-6948531D02*
X14398301Y-6939008D01*
X14398301Y-6939008D02*
X14417348Y-6929484D01*
X14550682Y-6929484D02*
X14674491Y-6929484D01*
X14674491Y-6929484D02*
X14607825Y-7005674D01*
X14607825Y-7005674D02*
X14636396Y-7005674D01*
X14636396Y-7005674D02*
X14655444Y-7015198D01*
X14655444Y-7015198D02*
X14664967Y-7024722D01*
X14664967Y-7024722D02*
X14674491Y-7043769D01*
X14674491Y-7043769D02*
X14674491Y-7091388D01*
X14674491Y-7091388D02*
X14664967Y-7110436D01*
X14664967Y-7110436D02*
X14655444Y-7119960D01*
X14655444Y-7119960D02*
X14636396Y-7129484D01*
X14636396Y-7129484D02*
X14579253Y-7129484D01*
X14579253Y-7129484D02*
X14560206Y-7119960D01*
X14560206Y-7119960D02*
X14550682Y-7110436D01*
X14769729Y-7129484D02*
X14807825Y-7129484D01*
X14807825Y-7129484D02*
X14826872Y-7119960D01*
X14826872Y-7119960D02*
X14836396Y-7110436D01*
X14836396Y-7110436D02*
X14855444Y-7081865D01*
X14855444Y-7081865D02*
X14864967Y-7043769D01*
X14864967Y-7043769D02*
X14864967Y-6967579D01*
X14864967Y-6967579D02*
X14855444Y-6948531D01*
X14855444Y-6948531D02*
X14845920Y-6939008D01*
X14845920Y-6939008D02*
X14826872Y-6929484D01*
X14826872Y-6929484D02*
X14788777Y-6929484D01*
X14788777Y-6929484D02*
X14769729Y-6939008D01*
X14769729Y-6939008D02*
X14760206Y-6948531D01*
X14760206Y-6948531D02*
X14750682Y-6967579D01*
X14750682Y-6967579D02*
X14750682Y-7015198D01*
X14750682Y-7015198D02*
X14760206Y-7034246D01*
X14760206Y-7034246D02*
X14769729Y-7043769D01*
X14769729Y-7043769D02*
X14788777Y-7053293D01*
X14788777Y-7053293D02*
X14826872Y-7053293D01*
X14826872Y-7053293D02*
X14845920Y-7043769D01*
X14845920Y-7043769D02*
X14855444Y-7034246D01*
X14855444Y-7034246D02*
X14864967Y-7015198D01*
X15036396Y-6996150D02*
X15036396Y-7129484D01*
X14988777Y-6919960D02*
X14941158Y-7062817D01*
X14941158Y-7062817D02*
X15064967Y-7062817D01*
X15131634Y-6929484D02*
X15131634Y-6967579D01*
X15207825Y-6929484D02*
X15207825Y-6967579D01*
X15503063Y-7205674D02*
X15493539Y-7196150D01*
X15493539Y-7196150D02*
X15474491Y-7167579D01*
X15474491Y-7167579D02*
X15464968Y-7148531D01*
X15464968Y-7148531D02*
X15455444Y-7119960D01*
X15455444Y-7119960D02*
X15445920Y-7072341D01*
X15445920Y-7072341D02*
X15445920Y-7034246D01*
X15445920Y-7034246D02*
X15455444Y-6986627D01*
X15455444Y-6986627D02*
X15464968Y-6958055D01*
X15464968Y-6958055D02*
X15474491Y-6939008D01*
X15474491Y-6939008D02*
X15493539Y-6910436D01*
X15493539Y-6910436D02*
X15503063Y-6900912D01*
X15664968Y-6996150D02*
X15664968Y-7129484D01*
X15617348Y-6919960D02*
X15569729Y-7062817D01*
X15569729Y-7062817D02*
X15693539Y-7062817D01*
X15922110Y-7129484D02*
X15922110Y-6929484D01*
X16007825Y-7129484D02*
X16007825Y-7024722D01*
X16007825Y-7024722D02*
X15998301Y-7005674D01*
X15998301Y-7005674D02*
X15979253Y-6996150D01*
X15979253Y-6996150D02*
X15950682Y-6996150D01*
X15950682Y-6996150D02*
X15931634Y-7005674D01*
X15931634Y-7005674D02*
X15922110Y-7015198D01*
X16131634Y-7129484D02*
X16112587Y-7119960D01*
X16112587Y-7119960D02*
X16103063Y-7110436D01*
X16103063Y-7110436D02*
X16093539Y-7091388D01*
X16093539Y-7091388D02*
X16093539Y-7034246D01*
X16093539Y-7034246D02*
X16103063Y-7015198D01*
X16103063Y-7015198D02*
X16112587Y-7005674D01*
X16112587Y-7005674D02*
X16131634Y-6996150D01*
X16131634Y-6996150D02*
X16160206Y-6996150D01*
X16160206Y-6996150D02*
X16179253Y-7005674D01*
X16179253Y-7005674D02*
X16188777Y-7015198D01*
X16188777Y-7015198D02*
X16198301Y-7034246D01*
X16198301Y-7034246D02*
X16198301Y-7091388D01*
X16198301Y-7091388D02*
X16188777Y-7110436D01*
X16188777Y-7110436D02*
X16179253Y-7119960D01*
X16179253Y-7119960D02*
X16160206Y-7129484D01*
X16160206Y-7129484D02*
X16131634Y-7129484D01*
X16312587Y-7129484D02*
X16293539Y-7119960D01*
X16293539Y-7119960D02*
X16284015Y-7100912D01*
X16284015Y-7100912D02*
X16284015Y-6929484D01*
X16464968Y-7119960D02*
X16445920Y-7129484D01*
X16445920Y-7129484D02*
X16407825Y-7129484D01*
X16407825Y-7129484D02*
X16388777Y-7119960D01*
X16388777Y-7119960D02*
X16379253Y-7100912D01*
X16379253Y-7100912D02*
X16379253Y-7024722D01*
X16379253Y-7024722D02*
X16388777Y-7005674D01*
X16388777Y-7005674D02*
X16407825Y-6996150D01*
X16407825Y-6996150D02*
X16445920Y-6996150D01*
X16445920Y-6996150D02*
X16464968Y-7005674D01*
X16464968Y-7005674D02*
X16474491Y-7024722D01*
X16474491Y-7024722D02*
X16474491Y-7043769D01*
X16474491Y-7043769D02*
X16379253Y-7062817D01*
X16550682Y-7119960D02*
X16569730Y-7129484D01*
X16569730Y-7129484D02*
X16607825Y-7129484D01*
X16607825Y-7129484D02*
X16626872Y-7119960D01*
X16626872Y-7119960D02*
X16636396Y-7100912D01*
X16636396Y-7100912D02*
X16636396Y-7091388D01*
X16636396Y-7091388D02*
X16626872Y-7072341D01*
X16626872Y-7072341D02*
X16607825Y-7062817D01*
X16607825Y-7062817D02*
X16579253Y-7062817D01*
X16579253Y-7062817D02*
X16560206Y-7053293D01*
X16560206Y-7053293D02*
X16550682Y-7034246D01*
X16550682Y-7034246D02*
X16550682Y-7024722D01*
X16550682Y-7024722D02*
X16560206Y-7005674D01*
X16560206Y-7005674D02*
X16579253Y-6996150D01*
X16579253Y-6996150D02*
X16607825Y-6996150D01*
X16607825Y-6996150D02*
X16626872Y-7005674D01*
X16703063Y-7205674D02*
X16712587Y-7196150D01*
X16712587Y-7196150D02*
X16731634Y-7167579D01*
X16731634Y-7167579D02*
X16741158Y-7148531D01*
X16741158Y-7148531D02*
X16750682Y-7119960D01*
X16750682Y-7119960D02*
X16760206Y-7072341D01*
X16760206Y-7072341D02*
X16760206Y-7034246D01*
X16760206Y-7034246D02*
X16750682Y-6986627D01*
X16750682Y-6986627D02*
X16741158Y-6958055D01*
X16741158Y-6958055D02*
X16731634Y-6939008D01*
X16731634Y-6939008D02*
X16712587Y-6910436D01*
X16712587Y-6910436D02*
X16703063Y-6900912D01*
M02*
