%TF.GenerationSoftware,KiCad,Pcbnew,7.0.10*%
%TF.CreationDate,2024-02-19T09:05:06+01:00*%
%TF.ProjectId,LegoLights,4c65676f-4c69-4676-9874-732e6b696361,rev?*%
%TF.SameCoordinates,Original*%
%TF.FileFunction,Drillmap*%
%TF.FilePolarity,Positive*%
%FSLAX45Y45*%
G04 Gerber Fmt 4.5, Leading zero omitted, Abs format (unit mm)*
G04 Created by KiCad (PCBNEW 7.0.10) date 2024-02-19 09:05:06*
%MOMM*%
%LPD*%
G01*
G04 APERTURE LIST*
%ADD10C,0.200000*%
G04 APERTURE END LIST*
D10*
X11938000Y-5588000D02*
X15138000Y-5588000D01*
X15138000Y-6388000D01*
X11938000Y-6388000D01*
X11938000Y-5588000D01*
X12188777Y-6709484D02*
X12188777Y-6509484D01*
X12188777Y-6509484D02*
X12236396Y-6509484D01*
X12236396Y-6509484D02*
X12264967Y-6519008D01*
X12264967Y-6519008D02*
X12284015Y-6538055D01*
X12284015Y-6538055D02*
X12293539Y-6557103D01*
X12293539Y-6557103D02*
X12303062Y-6595198D01*
X12303062Y-6595198D02*
X12303062Y-6623769D01*
X12303062Y-6623769D02*
X12293539Y-6661865D01*
X12293539Y-6661865D02*
X12284015Y-6680912D01*
X12284015Y-6680912D02*
X12264967Y-6699960D01*
X12264967Y-6699960D02*
X12236396Y-6709484D01*
X12236396Y-6709484D02*
X12188777Y-6709484D01*
X12388777Y-6709484D02*
X12388777Y-6576150D01*
X12388777Y-6614246D02*
X12398301Y-6595198D01*
X12398301Y-6595198D02*
X12407824Y-6585674D01*
X12407824Y-6585674D02*
X12426872Y-6576150D01*
X12426872Y-6576150D02*
X12445920Y-6576150D01*
X12512586Y-6709484D02*
X12512586Y-6576150D01*
X12512586Y-6509484D02*
X12503062Y-6519008D01*
X12503062Y-6519008D02*
X12512586Y-6528531D01*
X12512586Y-6528531D02*
X12522110Y-6519008D01*
X12522110Y-6519008D02*
X12512586Y-6509484D01*
X12512586Y-6509484D02*
X12512586Y-6528531D01*
X12636396Y-6709484D02*
X12617348Y-6699960D01*
X12617348Y-6699960D02*
X12607824Y-6680912D01*
X12607824Y-6680912D02*
X12607824Y-6509484D01*
X12741158Y-6709484D02*
X12722110Y-6699960D01*
X12722110Y-6699960D02*
X12712586Y-6680912D01*
X12712586Y-6680912D02*
X12712586Y-6509484D01*
X12969729Y-6709484D02*
X12969729Y-6509484D01*
X12969729Y-6509484D02*
X13036396Y-6652341D01*
X13036396Y-6652341D02*
X13103062Y-6509484D01*
X13103062Y-6509484D02*
X13103062Y-6709484D01*
X13284015Y-6709484D02*
X13284015Y-6604722D01*
X13284015Y-6604722D02*
X13274491Y-6585674D01*
X13274491Y-6585674D02*
X13255443Y-6576150D01*
X13255443Y-6576150D02*
X13217348Y-6576150D01*
X13217348Y-6576150D02*
X13198301Y-6585674D01*
X13284015Y-6699960D02*
X13264967Y-6709484D01*
X13264967Y-6709484D02*
X13217348Y-6709484D01*
X13217348Y-6709484D02*
X13198301Y-6699960D01*
X13198301Y-6699960D02*
X13188777Y-6680912D01*
X13188777Y-6680912D02*
X13188777Y-6661865D01*
X13188777Y-6661865D02*
X13198301Y-6642817D01*
X13198301Y-6642817D02*
X13217348Y-6633293D01*
X13217348Y-6633293D02*
X13264967Y-6633293D01*
X13264967Y-6633293D02*
X13284015Y-6623769D01*
X13379253Y-6576150D02*
X13379253Y-6776150D01*
X13379253Y-6585674D02*
X13398301Y-6576150D01*
X13398301Y-6576150D02*
X13436396Y-6576150D01*
X13436396Y-6576150D02*
X13455443Y-6585674D01*
X13455443Y-6585674D02*
X13464967Y-6595198D01*
X13464967Y-6595198D02*
X13474491Y-6614246D01*
X13474491Y-6614246D02*
X13474491Y-6671388D01*
X13474491Y-6671388D02*
X13464967Y-6690436D01*
X13464967Y-6690436D02*
X13455443Y-6699960D01*
X13455443Y-6699960D02*
X13436396Y-6709484D01*
X13436396Y-6709484D02*
X13398301Y-6709484D01*
X13398301Y-6709484D02*
X13379253Y-6699960D01*
X13560205Y-6690436D02*
X13569729Y-6699960D01*
X13569729Y-6699960D02*
X13560205Y-6709484D01*
X13560205Y-6709484D02*
X13550682Y-6699960D01*
X13550682Y-6699960D02*
X13560205Y-6690436D01*
X13560205Y-6690436D02*
X13560205Y-6709484D01*
X13560205Y-6585674D02*
X13569729Y-6595198D01*
X13569729Y-6595198D02*
X13560205Y-6604722D01*
X13560205Y-6604722D02*
X13550682Y-6595198D01*
X13550682Y-6595198D02*
X13560205Y-6585674D01*
X13560205Y-6585674D02*
X13560205Y-6604722D01*
M02*
