%TF.GenerationSoftware,KiCad,Pcbnew,7.0.10*%
%TF.CreationDate,2024-02-12T22:45:47+01:00*%
%TF.ProjectId,LegoLights,4c65676f-4c69-4676-9874-732e6b696361,rev?*%
%TF.SameCoordinates,Original*%
%TF.FileFunction,Legend,Bot*%
%TF.FilePolarity,Positive*%
%FSLAX46Y46*%
G04 Gerber Fmt 4.6, Leading zero omitted, Abs format (unit mm)*
G04 Created by KiCad (PCBNEW 7.0.10) date 2024-02-12 22:45:47*
%MOMM*%
%LPD*%
G01*
G04 APERTURE LIST*
%ADD10C,0.150000*%
G04 APERTURE END LIST*
D10*
X138379030Y-57781819D02*
X138855220Y-57781819D01*
X138855220Y-57781819D02*
X138855220Y-56781819D01*
X137664744Y-57734200D02*
X137759982Y-57781819D01*
X137759982Y-57781819D02*
X137950458Y-57781819D01*
X137950458Y-57781819D02*
X138045696Y-57734200D01*
X138045696Y-57734200D02*
X138093315Y-57638961D01*
X138093315Y-57638961D02*
X138093315Y-57258009D01*
X138093315Y-57258009D02*
X138045696Y-57162771D01*
X138045696Y-57162771D02*
X137950458Y-57115152D01*
X137950458Y-57115152D02*
X137759982Y-57115152D01*
X137759982Y-57115152D02*
X137664744Y-57162771D01*
X137664744Y-57162771D02*
X137617125Y-57258009D01*
X137617125Y-57258009D02*
X137617125Y-57353247D01*
X137617125Y-57353247D02*
X138093315Y-57448485D01*
X136759982Y-57115152D02*
X136759982Y-57924676D01*
X136759982Y-57924676D02*
X136807601Y-58019914D01*
X136807601Y-58019914D02*
X136855220Y-58067533D01*
X136855220Y-58067533D02*
X136950458Y-58115152D01*
X136950458Y-58115152D02*
X137093315Y-58115152D01*
X137093315Y-58115152D02*
X137188553Y-58067533D01*
X136759982Y-57734200D02*
X136855220Y-57781819D01*
X136855220Y-57781819D02*
X137045696Y-57781819D01*
X137045696Y-57781819D02*
X137140934Y-57734200D01*
X137140934Y-57734200D02*
X137188553Y-57686580D01*
X137188553Y-57686580D02*
X137236172Y-57591342D01*
X137236172Y-57591342D02*
X137236172Y-57305628D01*
X137236172Y-57305628D02*
X137188553Y-57210390D01*
X137188553Y-57210390D02*
X137140934Y-57162771D01*
X137140934Y-57162771D02*
X137045696Y-57115152D01*
X137045696Y-57115152D02*
X136855220Y-57115152D01*
X136855220Y-57115152D02*
X136759982Y-57162771D01*
X136140934Y-57781819D02*
X136236172Y-57734200D01*
X136236172Y-57734200D02*
X136283791Y-57686580D01*
X136283791Y-57686580D02*
X136331410Y-57591342D01*
X136331410Y-57591342D02*
X136331410Y-57305628D01*
X136331410Y-57305628D02*
X136283791Y-57210390D01*
X136283791Y-57210390D02*
X136236172Y-57162771D01*
X136236172Y-57162771D02*
X136140934Y-57115152D01*
X136140934Y-57115152D02*
X135998077Y-57115152D01*
X135998077Y-57115152D02*
X135902839Y-57162771D01*
X135902839Y-57162771D02*
X135855220Y-57210390D01*
X135855220Y-57210390D02*
X135807601Y-57305628D01*
X135807601Y-57305628D02*
X135807601Y-57591342D01*
X135807601Y-57591342D02*
X135855220Y-57686580D01*
X135855220Y-57686580D02*
X135902839Y-57734200D01*
X135902839Y-57734200D02*
X135998077Y-57781819D01*
X135998077Y-57781819D02*
X136140934Y-57781819D01*
X134140934Y-57781819D02*
X134617124Y-57781819D01*
X134617124Y-57781819D02*
X134617124Y-56781819D01*
X133807600Y-57781819D02*
X133807600Y-57115152D01*
X133807600Y-56781819D02*
X133855219Y-56829438D01*
X133855219Y-56829438D02*
X133807600Y-56877057D01*
X133807600Y-56877057D02*
X133759981Y-56829438D01*
X133759981Y-56829438D02*
X133807600Y-56781819D01*
X133807600Y-56781819D02*
X133807600Y-56877057D01*
X132902839Y-57115152D02*
X132902839Y-57924676D01*
X132902839Y-57924676D02*
X132950458Y-58019914D01*
X132950458Y-58019914D02*
X132998077Y-58067533D01*
X132998077Y-58067533D02*
X133093315Y-58115152D01*
X133093315Y-58115152D02*
X133236172Y-58115152D01*
X133236172Y-58115152D02*
X133331410Y-58067533D01*
X132902839Y-57734200D02*
X132998077Y-57781819D01*
X132998077Y-57781819D02*
X133188553Y-57781819D01*
X133188553Y-57781819D02*
X133283791Y-57734200D01*
X133283791Y-57734200D02*
X133331410Y-57686580D01*
X133331410Y-57686580D02*
X133379029Y-57591342D01*
X133379029Y-57591342D02*
X133379029Y-57305628D01*
X133379029Y-57305628D02*
X133331410Y-57210390D01*
X133331410Y-57210390D02*
X133283791Y-57162771D01*
X133283791Y-57162771D02*
X133188553Y-57115152D01*
X133188553Y-57115152D02*
X132998077Y-57115152D01*
X132998077Y-57115152D02*
X132902839Y-57162771D01*
X132426648Y-57781819D02*
X132426648Y-56781819D01*
X131998077Y-57781819D02*
X131998077Y-57258009D01*
X131998077Y-57258009D02*
X132045696Y-57162771D01*
X132045696Y-57162771D02*
X132140934Y-57115152D01*
X132140934Y-57115152D02*
X132283791Y-57115152D01*
X132283791Y-57115152D02*
X132379029Y-57162771D01*
X132379029Y-57162771D02*
X132426648Y-57210390D01*
X131664743Y-57115152D02*
X131283791Y-57115152D01*
X131521886Y-56781819D02*
X131521886Y-57638961D01*
X131521886Y-57638961D02*
X131474267Y-57734200D01*
X131474267Y-57734200D02*
X131379029Y-57781819D01*
X131379029Y-57781819D02*
X131283791Y-57781819D01*
X130998076Y-57734200D02*
X130902838Y-57781819D01*
X130902838Y-57781819D02*
X130712362Y-57781819D01*
X130712362Y-57781819D02*
X130617124Y-57734200D01*
X130617124Y-57734200D02*
X130569505Y-57638961D01*
X130569505Y-57638961D02*
X130569505Y-57591342D01*
X130569505Y-57591342D02*
X130617124Y-57496104D01*
X130617124Y-57496104D02*
X130712362Y-57448485D01*
X130712362Y-57448485D02*
X130855219Y-57448485D01*
X130855219Y-57448485D02*
X130950457Y-57400866D01*
X130950457Y-57400866D02*
X130998076Y-57305628D01*
X130998076Y-57305628D02*
X130998076Y-57258009D01*
X130998076Y-57258009D02*
X130950457Y-57162771D01*
X130950457Y-57162771D02*
X130855219Y-57115152D01*
X130855219Y-57115152D02*
X130712362Y-57115152D01*
X130712362Y-57115152D02*
X130617124Y-57162771D01*
X141077792Y-61083819D02*
X141411125Y-60607628D01*
X141649220Y-61083819D02*
X141649220Y-60083819D01*
X141649220Y-60083819D02*
X141268268Y-60083819D01*
X141268268Y-60083819D02*
X141173030Y-60131438D01*
X141173030Y-60131438D02*
X141125411Y-60179057D01*
X141125411Y-60179057D02*
X141077792Y-60274295D01*
X141077792Y-60274295D02*
X141077792Y-60417152D01*
X141077792Y-60417152D02*
X141125411Y-60512390D01*
X141125411Y-60512390D02*
X141173030Y-60560009D01*
X141173030Y-60560009D02*
X141268268Y-60607628D01*
X141268268Y-60607628D02*
X141649220Y-60607628D01*
X140649220Y-61083819D02*
X140649220Y-60417152D01*
X140649220Y-60083819D02*
X140696839Y-60131438D01*
X140696839Y-60131438D02*
X140649220Y-60179057D01*
X140649220Y-60179057D02*
X140601601Y-60131438D01*
X140601601Y-60131438D02*
X140649220Y-60083819D01*
X140649220Y-60083819D02*
X140649220Y-60179057D01*
X139744459Y-61036200D02*
X139839697Y-61083819D01*
X139839697Y-61083819D02*
X140030173Y-61083819D01*
X140030173Y-61083819D02*
X140125411Y-61036200D01*
X140125411Y-61036200D02*
X140173030Y-60988580D01*
X140173030Y-60988580D02*
X140220649Y-60893342D01*
X140220649Y-60893342D02*
X140220649Y-60607628D01*
X140220649Y-60607628D02*
X140173030Y-60512390D01*
X140173030Y-60512390D02*
X140125411Y-60464771D01*
X140125411Y-60464771D02*
X140030173Y-60417152D01*
X140030173Y-60417152D02*
X139839697Y-60417152D01*
X139839697Y-60417152D02*
X139744459Y-60464771D01*
X139315887Y-61083819D02*
X139315887Y-60083819D01*
X139220649Y-60702866D02*
X138934935Y-61083819D01*
X138934935Y-60417152D02*
X139315887Y-60798104D01*
X137839696Y-60083819D02*
X137601601Y-61083819D01*
X137601601Y-61083819D02*
X137411125Y-60369533D01*
X137411125Y-60369533D02*
X137220649Y-61083819D01*
X137220649Y-61083819D02*
X136982554Y-60083819D01*
X136601601Y-61083819D02*
X136601601Y-60417152D01*
X136601601Y-60083819D02*
X136649220Y-60131438D01*
X136649220Y-60131438D02*
X136601601Y-60179057D01*
X136601601Y-60179057D02*
X136553982Y-60131438D01*
X136553982Y-60131438D02*
X136601601Y-60083819D01*
X136601601Y-60083819D02*
X136601601Y-60179057D01*
X136125411Y-60417152D02*
X136125411Y-61083819D01*
X136125411Y-60512390D02*
X136077792Y-60464771D01*
X136077792Y-60464771D02*
X135982554Y-60417152D01*
X135982554Y-60417152D02*
X135839697Y-60417152D01*
X135839697Y-60417152D02*
X135744459Y-60464771D01*
X135744459Y-60464771D02*
X135696840Y-60560009D01*
X135696840Y-60560009D02*
X135696840Y-61083819D01*
X135363506Y-60417152D02*
X134982554Y-60417152D01*
X135220649Y-60083819D02*
X135220649Y-60940961D01*
X135220649Y-60940961D02*
X135173030Y-61036200D01*
X135173030Y-61036200D02*
X135077792Y-61083819D01*
X135077792Y-61083819D02*
X134982554Y-61083819D01*
X134268268Y-61036200D02*
X134363506Y-61083819D01*
X134363506Y-61083819D02*
X134553982Y-61083819D01*
X134553982Y-61083819D02*
X134649220Y-61036200D01*
X134649220Y-61036200D02*
X134696839Y-60940961D01*
X134696839Y-60940961D02*
X134696839Y-60560009D01*
X134696839Y-60560009D02*
X134649220Y-60464771D01*
X134649220Y-60464771D02*
X134553982Y-60417152D01*
X134553982Y-60417152D02*
X134363506Y-60417152D01*
X134363506Y-60417152D02*
X134268268Y-60464771D01*
X134268268Y-60464771D02*
X134220649Y-60560009D01*
X134220649Y-60560009D02*
X134220649Y-60655247D01*
X134220649Y-60655247D02*
X134696839Y-60750485D01*
X133792077Y-61083819D02*
X133792077Y-60417152D01*
X133792077Y-60607628D02*
X133744458Y-60512390D01*
X133744458Y-60512390D02*
X133696839Y-60464771D01*
X133696839Y-60464771D02*
X133601601Y-60417152D01*
X133601601Y-60417152D02*
X133506363Y-60417152D01*
X133220648Y-61036200D02*
X133125410Y-61083819D01*
X133125410Y-61083819D02*
X132934934Y-61083819D01*
X132934934Y-61083819D02*
X132839696Y-61036200D01*
X132839696Y-61036200D02*
X132792077Y-60940961D01*
X132792077Y-60940961D02*
X132792077Y-60893342D01*
X132792077Y-60893342D02*
X132839696Y-60798104D01*
X132839696Y-60798104D02*
X132934934Y-60750485D01*
X132934934Y-60750485D02*
X133077791Y-60750485D01*
X133077791Y-60750485D02*
X133173029Y-60702866D01*
X133173029Y-60702866D02*
X133220648Y-60607628D01*
X133220648Y-60607628D02*
X133220648Y-60560009D01*
X133220648Y-60560009D02*
X133173029Y-60464771D01*
X133173029Y-60464771D02*
X133077791Y-60417152D01*
X133077791Y-60417152D02*
X132934934Y-60417152D01*
X132934934Y-60417152D02*
X132839696Y-60464771D01*
X131649219Y-60179057D02*
X131601600Y-60131438D01*
X131601600Y-60131438D02*
X131506362Y-60083819D01*
X131506362Y-60083819D02*
X131268267Y-60083819D01*
X131268267Y-60083819D02*
X131173029Y-60131438D01*
X131173029Y-60131438D02*
X131125410Y-60179057D01*
X131125410Y-60179057D02*
X131077791Y-60274295D01*
X131077791Y-60274295D02*
X131077791Y-60369533D01*
X131077791Y-60369533D02*
X131125410Y-60512390D01*
X131125410Y-60512390D02*
X131696838Y-61083819D01*
X131696838Y-61083819D02*
X131077791Y-61083819D01*
X130458743Y-60083819D02*
X130363505Y-60083819D01*
X130363505Y-60083819D02*
X130268267Y-60131438D01*
X130268267Y-60131438D02*
X130220648Y-60179057D01*
X130220648Y-60179057D02*
X130173029Y-60274295D01*
X130173029Y-60274295D02*
X130125410Y-60464771D01*
X130125410Y-60464771D02*
X130125410Y-60702866D01*
X130125410Y-60702866D02*
X130173029Y-60893342D01*
X130173029Y-60893342D02*
X130220648Y-60988580D01*
X130220648Y-60988580D02*
X130268267Y-61036200D01*
X130268267Y-61036200D02*
X130363505Y-61083819D01*
X130363505Y-61083819D02*
X130458743Y-61083819D01*
X130458743Y-61083819D02*
X130553981Y-61036200D01*
X130553981Y-61036200D02*
X130601600Y-60988580D01*
X130601600Y-60988580D02*
X130649219Y-60893342D01*
X130649219Y-60893342D02*
X130696838Y-60702866D01*
X130696838Y-60702866D02*
X130696838Y-60464771D01*
X130696838Y-60464771D02*
X130649219Y-60274295D01*
X130649219Y-60274295D02*
X130601600Y-60179057D01*
X130601600Y-60179057D02*
X130553981Y-60131438D01*
X130553981Y-60131438D02*
X130458743Y-60083819D01*
X129744457Y-60179057D02*
X129696838Y-60131438D01*
X129696838Y-60131438D02*
X129601600Y-60083819D01*
X129601600Y-60083819D02*
X129363505Y-60083819D01*
X129363505Y-60083819D02*
X129268267Y-60131438D01*
X129268267Y-60131438D02*
X129220648Y-60179057D01*
X129220648Y-60179057D02*
X129173029Y-60274295D01*
X129173029Y-60274295D02*
X129173029Y-60369533D01*
X129173029Y-60369533D02*
X129220648Y-60512390D01*
X129220648Y-60512390D02*
X129792076Y-61083819D01*
X129792076Y-61083819D02*
X129173029Y-61083819D01*
X128315886Y-60417152D02*
X128315886Y-61083819D01*
X128553981Y-60036200D02*
X128792076Y-60750485D01*
X128792076Y-60750485D02*
X128173029Y-60750485D01*
M02*
